<svg width="84" height="22" viewBox="0 0 84 22" fill="none" xmlns="http://www.w3.org/2000/svg">
<path d="M17.6891 21.6215C17.5055 21.6381 17.3218 21.5905 17.1694 21.4869C17.0169 21.3833 16.905 21.2299 16.8527 21.053L14.3047 14.1245H4.18174L1.70719 21.053C1.6472 21.2251 1.5335 21.3732 1.38289 21.4756C1.23228 21.578 1.05276 21.6291 0.870856 21.6215C0.724626 21.6204 0.58097 21.5829 0.45275 21.5125C0.32453 21.4422 0.21575 21.3411 0.136148 21.2183C0.0565459 21.0955 0.00860786 20.9549 -0.00337406 20.8091C-0.015356 20.6632 0.00899272 20.5167 0.0674911 20.3825L6.62331 2.27303C6.75931 1.67424 7.09522 1.13972 7.5756 0.757677C8.05598 0.375633 8.65213 0.168881 9.26572 0.171534C9.87827 0.172795 10.4731 0.377237 10.9572 0.752871C11.4413 1.1285 11.7873 1.65414 11.9411 2.24754L18.5359 20.39C18.5707 20.4868 18.5934 20.5876 18.6033 20.69C18.5982 20.9326 18.5007 21.1641 18.3308 21.3372C18.1609 21.5103 17.9313 21.612 17.6891 21.6215ZM4.84571 12.35H13.6423L10.1635 2.60903C10.1236 2.39742 10.0128 2.20579 9.84923 2.06585C9.68568 1.92591 9.47929 1.84606 9.26422 1.83953C8.86454 1.83953 8.56477 2.10755 8.36493 2.64355L4.84571 12.35Z" fill="#27A365"/>
<path d="M24.5161 2.21304H17.9573C17.8388 2.22001 17.7202 2.20269 17.6087 2.16212C17.4972 2.12154 17.3951 2.05858 17.3088 1.97711C17.2225 1.89564 17.1537 1.79736 17.1067 1.68833C17.0596 1.5793 17.0354 1.46179 17.0354 1.34304C17.0354 1.22429 17.0596 1.1068 17.1067 0.997771C17.1537 0.888737 17.2225 0.790461 17.3088 0.70899C17.3951 0.62752 17.4972 0.564558 17.6087 0.523985C17.7202 0.483412 17.8388 0.466094 17.9573 0.473059H32.7071C32.9377 0.473059 33.1588 0.564716 33.3218 0.727873C33.4848 0.89103 33.5764 1.1123 33.5764 1.34304C33.5764 1.57378 33.4848 1.79507 33.3218 1.95823C33.1588 2.12138 32.9377 2.21304 32.7071 2.21304H26.2562V20.8236C26.2562 20.9378 26.2337 21.0509 26.19 21.1565C26.1464 21.2621 26.0823 21.3579 26.0016 21.4387C25.9209 21.5195 25.8251 21.5836 25.7196 21.6273C25.6141 21.6711 25.5011 21.6935 25.3869 21.6935C25.2727 21.6935 25.1597 21.6711 25.0542 21.6273C24.9488 21.5836 24.8529 21.5195 24.7722 21.4387C24.6915 21.3579 24.6275 21.2621 24.5838 21.1565C24.5401 21.0509 24.5176 20.9378 24.5176 20.8236L24.5161 2.21304Z" fill="#27A365"/>
<path d="M51.6058 14.498C51.6101 15.4726 51.4166 16.4379 51.0371 17.3354C50.6576 18.2329 50.1 19.044 49.3981 19.7195C48.6443 20.4663 47.7438 21.0483 46.7536 21.4286C45.7634 21.8089 44.7051 21.9794 43.6456 21.929C42.5348 21.9521 41.4305 21.7539 40.3969 21.346C39.3633 20.9381 38.421 20.3286 37.6249 19.553C35.9976 17.9564 35.0302 15.8053 34.915 13.5275C34.7813 11.8903 34.7813 10.2448 34.915 8.60753C35.0309 6.34954 35.9995 4.21991 37.6249 2.64953C38.4165 1.86532 39.3571 1.24793 40.3913 0.833896C41.4254 0.419862 42.532 0.217574 43.6456 0.239009C45.2511 0.195004 46.8324 0.638268 48.1815 1.51052C49.5305 2.38277 50.5843 3.64318 51.2042 5.12603C51.2557 5.26307 51.2736 5.41046 51.2565 5.55587C51.2394 5.70128 51.1878 5.84047 51.1059 5.96179C51.024 6.08312 50.9142 6.18305 50.7858 6.2532C50.6574 6.32336 50.5141 6.36169 50.3678 6.36501C50.185 6.37716 50.0034 6.32783 49.8519 6.22482C49.7004 6.12181 49.5876 5.97104 49.5315 5.79652C49.0304 4.65659 48.2047 3.68979 47.1576 3.01695C46.1104 2.34411 44.8884 1.99507 43.6441 2.01351C42.7785 2.00046 41.9189 2.15949 41.1152 2.48134C40.3114 2.8032 39.5795 3.28149 38.9618 3.88851C37.6583 5.11348 36.8691 6.78871 36.7541 8.57453C36.5869 10.2438 36.5869 11.9257 36.7541 13.595C36.8713 15.3827 37.6454 17.0636 38.9274 18.314C39.5516 18.9214 40.2893 19.3997 41.0984 19.7214C41.9075 20.0432 42.7721 20.2021 43.6426 20.189C45.2602 20.2597 46.8461 19.725 48.0911 18.689C48.659 18.2039 49.1103 17.5969 49.4113 16.9131C49.7124 16.2293 49.8554 15.4863 49.8297 14.7395V12.389H44.8132C44.5826 12.389 44.3615 12.2974 44.1985 12.1342C44.0355 11.9711 43.9439 11.7498 43.9439 11.519C43.9439 11.2883 44.0355 11.067 44.1985 10.9038C44.3615 10.7407 44.5826 10.649 44.8132 10.649H49.9302C50.1493 10.628 50.3704 10.6545 50.5783 10.7268C50.7862 10.7992 50.9761 10.9156 51.1349 11.0681C51.2937 11.2207 51.4177 11.4057 51.4985 11.6106C51.5793 11.8156 51.6149 12.0355 51.6028 12.2555L51.6058 14.498Z" fill="#27A365"/>
<path d="M57.1604 20.8911C57.1692 21.0268 57.1496 21.1628 57.1028 21.2904C57.056 21.418 56.9831 21.5345 56.8887 21.6322C56.7942 21.73 56.6804 21.8069 56.5545 21.858C56.4287 21.9091 56.2935 21.9333 56.1577 21.9291C56.0235 21.9277 55.8909 21.8997 55.7676 21.8466C55.6443 21.7936 55.5327 21.7165 55.4394 21.6199C55.3462 21.5233 55.273 21.4092 55.2241 21.2841C55.1753 21.159 55.1518 21.0254 55.155 20.8911V19.2516C55.0546 17.9121 57.2293 17.9121 57.1619 19.2516L57.1604 20.8911Z" fill="#27A365"/>
<path d="M58.0643 1.44352C58.0206 1.30948 58.0102 1.16685 58.0338 1.02787C58.0575 0.888899 58.1145 0.75775 58.2001 0.645734C58.2856 0.533717 58.3971 0.444181 58.5248 0.384831C58.6526 0.325481 58.7929 0.298106 58.9336 0.305043C59.035 0.294534 59.1374 0.304537 59.2349 0.334477C59.3323 0.364418 59.4228 0.413675 59.5008 0.479314C59.5788 0.544952 59.6429 0.625631 59.6891 0.71655C59.7353 0.807468 59.7628 0.906767 59.7699 1.00853L64.0175 20.0885C64.0175 20.3225 64.2514 20.2565 64.3173 20.0885L69.133 1.88003C69.1996 1.44651 69.4246 1.05315 69.7643 0.776059C70.104 0.498966 70.5344 0.357846 70.9721 0.380025C71.4083 0.364134 71.8354 0.507559 72.1738 0.783544C72.5121 1.05953 72.7386 1.44923 72.8111 1.88003L77.5264 20.123C77.5938 20.291 77.8262 20.357 77.8262 20.123L82.1412 1.07303C82.1596 0.857548 82.2601 0.657407 82.422 0.514127C82.5838 0.370847 82.7946 0.295428 83.0106 0.303532C83.1525 0.288748 83.2959 0.311378 83.4264 0.369176C83.5569 0.426974 83.67 0.517922 83.7546 0.633008C83.8391 0.748093 83.8921 0.883325 83.9083 1.02524C83.9245 1.16716 83.9033 1.31084 83.8469 1.44204L79.5003 20.4545C79.4069 20.864 79.1774 21.2296 78.8492 21.4914C78.5211 21.7533 78.1139 21.8959 77.6942 21.8959C77.2746 21.8959 76.8673 21.7533 76.5392 21.4914C76.2111 21.2296 75.9816 20.864 75.8882 20.4545L71.0725 2.21154C71.0725 2.17176 71.0567 2.1336 71.0286 2.10547C71.0005 2.07734 70.9624 2.06153 70.9226 2.06153C70.8829 2.06153 70.8447 2.07734 70.8166 2.10547C70.7885 2.1336 70.7727 2.17176 70.7727 2.21154L65.8896 20.4545C65.7962 20.864 65.5666 21.2296 65.2385 21.4914C64.9104 21.7533 64.5032 21.8959 64.0835 21.8959C63.6638 21.8959 63.2566 21.7533 62.9285 21.4914C62.6004 21.2296 62.3708 20.864 62.2774 20.4545L58.0643 1.44352Z" fill="#5C5D5D"/>
</svg>
